<svg xmlns="http://www.w3.org/2000/svg" width="100" height="100" viewBox="0 0 100 100">
  <defs>
    <style>
      .cls-1 {
        fill: #fff;
      }
    </style>
  </defs>
  <path id="logo" class="cls-1" d="M100,100l0,0L90,90,80,80l5,10H10A10.011,10.011,0,0,1,0,80V10A10.011,10.011,0,0,1,10,0H90a10.011,10.011,0,0,1,10,10v90ZM43,68a7.771,7.771,0,0,0,7.5,8A7.771,7.771,0,0,0,58,68Zm7-54a5.006,5.006,0,0,0-5,5v.418C35.579,21.129,31,28.189,31,41v5a16.611,16.611,0,0,1-1.562,6.889A23.846,23.846,0,0,1,26,58.264,28.981,28.981,0,0,1,21,63H79l-.011-.007A29.4,29.4,0,0,1,74,58.255a23.909,23.909,0,0,1-3.437-5.374A16.583,16.583,0,0,1,69,46V41c0-12.812-4.58-19.872-14-21.583V19A5.006,5.006,0,0,0,50,14Z" transform="translate(0)"/>
</svg>
